<?xml version="1.0" encoding="utf-8"?>
<!-- Generator: Adobe Illustrator 23.0.4, SVG Export Plug-In . SVG Version: 6.00 Build 0)  -->
<svg version="1.1" id="Capa_1" xmlns="http://www.w3.org/2000/svg" xmlns:xlink="http://www.w3.org/1999/xlink" x="0px" y="0px"
	 viewBox="0 0 300 50" style="enable-background:new 0 0 300 50;" xml:space="preserve">
<g id="Layer_1">
</g>
<g>
	<path d="M79.7,24.6h-3.9V2.8h5c5.5,0,8.3,4.1,8.3,8.2c0,4-2.9,8.2-7.8,8.2h-1.6V24.6L79.7,24.6z M79.7,15.4h1.5
		c2.7,0,4.1-2.3,4.1-4.5c0-2.2-1.4-4.5-4.6-4.5h-1.1V15.4L79.7,15.4z"/>
	<path d="M99.9,25c-5.1,0-8.5-3.5-8.5-8.8V2.8h3.9v13.3c0,3.4,1.6,5.2,4.6,5.2c3.8,0,4.6-2.8,4.6-5.2V2.8h3.9v13.5
		C108.4,21.5,105,25,99.9,25L99.9,25z"/>
	<polygon points="121.7,24.6 111.1,24.6 111.1,2.8 115,2.8 115,20.9 121.7,20.9 	"/>
	<polygon points="133.9,24.6 123.3,24.6 123.3,2.8 127.2,2.8 127.2,20.9 133.9,20.9 	"/>
	<path d="M163.4,24.6h-6.8V2.8h4.1c2.3,0,4.1,0.2,5.5,1c1.9,1.1,3,3,3,5.2c0,1.5-0.6,2.9-1.8,3.8c2.1,1.1,3.2,2.9,3.2,5.4
		C170.7,21.8,167.5,24.6,163.4,24.6L163.4,24.6z M160.5,20.9h2.1c4.1,0,4.1-2.1,4.1-2.9c0-0.7,0-2.8-4-2.8h-2.2V20.9L160.5,20.9z
		 M160.5,11.6h1.6c1.5,0,3.2-0.5,3.2-2.6c0-1.2-0.4-2.7-3.4-2.7h-1.4V11.6L160.5,11.6z"/>
	<polygon points="186.1,24.6 172.8,24.6 172.8,2.8 186.1,2.8 186.1,6.4 176.7,6.4 176.7,11.6 185.6,11.6 185.6,15.2 176.7,15.2 
		176.7,20.9 186.1,20.9 	"/>
	<path d="M208.4,24.6h-4.5l-2.2-5.7h-8.1l-2.2,5.7h-4.2l8.9-21.9h3.1L208.4,24.6L208.4,24.6z M195,15.2h5.2c0,0-2.6-6.6-2.6-6.6
		C197.6,8.7,195,15.2,195,15.2L195,15.2z"/>
	<path d="M217.4,20.9c0.6,1.2,1.2,2.4,1.9,3.7h4.9c-1.1-1.7-2.2-3.7-3.1-5.5c-0.6-1.3-1.2-2.5-1.6-3.3c1-0.6,1.9-1.3,2.5-2.3
		c0.6-1.1,1-2.4,1-3.8c0-4.3-3.1-6.9-8.4-6.9h-5.3v21.8h3.9v-7.4c0,0,1,0,2.3-0.2C216,18,216.6,19.4,217.4,20.9z M213.2,13.3V6.4
		h1.2c3.1,0,4.6,1.1,4.6,3.3c0,3-2.4,3.6-4.5,3.6C214.5,13.3,213.2,13.3,213.2,13.3z"/>
	<path d="M152.8,15.3c0,0-0.1,0-0.1,0C152.7,15.3,152.8,15.3,152.8,15.3z"/>
	<path d="M152.8,15.3c0,0-0.1,0-0.1,0C152.7,15.3,152.8,15.3,152.8,15.3z"/>
	<path d="M50.8,38.6h-1.6l-0.5,3.2h-2.1l0.5-3.2h-1.5v-2.4h1.9l0.3-2h-1.7v-2.3h2l0.4-2.8h2.1l-0.4,2.8h1.6l0.4-2.8h2.1l-0.4,2.8
		h1.6v2.3h-1.9l-0.3,2h1.7v2.4h-2.1l-0.5,3.2h-2.1L50.8,38.6z M49.6,36.2h1.6l0.3-2h-1.6L49.6,36.2z"/>
	<path d="M68.8,43.7c-0.8,0.3-1.8,0.4-2.8,0.4c-4.6,0-7.6-3.2-7.6-7.5v-0.2c0-4.4,3.2-7.5,7.6-7.5c4.4,0,7.6,3,7.6,7.4v0.2
		c0,2.4-0.9,4.4-2.4,5.8l1.5,1.6l-1.9,1.9L68.8,43.7z M66.8,41.5l-1.4-1.5l1.9-1.8l1.8,2c0.6-0.9,1-2.1,1-3.5v-0.2
		c0-2.9-1.5-4.8-4.1-4.8c-2.6,0-4.1,1.9-4.1,4.9v0.2c0,3.1,1.7,5,4.2,5C66.3,41.5,66.5,41.5,66.8,41.5z"/>
	<path d="M77.4,38.1v-9h3.4v8.8c0,2.5,0.7,3.5,2.7,3.5c2,0,2.8-1,2.8-3.7v-8.7h3.4V38c0,4-2.2,6.1-6.2,6.1
		C79.6,44.1,77.4,42,77.4,38.1z"/>
	<path d="M94.2,29.1h9.6v2.6h-6.3v3.4h5v2.4h-5v3.7h6.6v2.6h-9.9V29.1z"/>
	<path d="M107.9,29.1h4.8c5.2,0,7.7,2.8,7.7,7.2v0.2c0,4.4-2.6,7.4-7.8,7.4h-4.8C107.9,43.9,107.9,29.1,107.9,29.1z M112.6,41.3
		c3,0,4.4-1.7,4.4-4.7v-0.2c0-3-1.3-4.7-4.4-4.7h-1.3v9.5H112.6L112.6,41.3z"/>
	<path d="M127.2,29.1h4.4l4.8,14.8h-3.5l-1-3.3h-5.3l-1,3.3h-3.1L127.2,29.1z M127.2,38.2h3.9l-1.9-6.4L127.2,38.2z"/>
	<path d="M141.2,31.7h-4v-2.6h11.3v2.6h-4v12.2h-3.4L141.2,31.7L141.2,31.7z"/>
	<path d="M152.1,29.1h9.6v2.6h-6.3v3.4h5v2.4h-5v3.7h6.6v2.6h-9.9V29.1z"/>
	<path d="M165,29.1h9.6v2.6h-6.3v3.4h5v2.4h-5v3.7h6.6v2.6H165V29.1z"/>
	<path d="M177.8,29.1h3.9l5.6,9.7v-9.7h3v14.8h-3.3l-6.1-10.5v10.5h-3L177.8,29.1L177.8,29.1z"/>
	<path d="M194.1,36.6v-0.2c0-4.5,3.1-7.5,7.3-7.5c3.6,0,6.2,1.7,6.5,5.4h-3.4c-0.2-1.8-1.2-2.7-3.1-2.7c-2.3,0-3.8,1.8-3.8,4.9v0.2
		c0,3,1.4,4.8,3.8,4.8c1.8,0,3.1-0.9,3.4-2.8h3.3c-0.4,3.7-3,5.5-6.6,5.5C196.7,44.1,194.1,41.1,194.1,36.6z"/>
	<path d="M215.2,29.1h4.4l4.8,14.8h-3.5l-1-3.3h-5.3l-1,3.3h-3.1L215.2,29.1z M215.2,38.2h3.9l-1.9-6.4L215.2,38.2z"/>
	<path d="M226.5,39.2h3.2c0.1,1.3,0.7,2.4,2.9,2.4c1.5,0,2.4-0.8,2.4-2c0-1.2-0.6-1.6-2.8-1.9c-3.8-0.5-5.3-1.6-5.3-4.5
		c0-2.5,2.1-4.4,5.4-4.4c3.3,0,5.3,1.5,5.5,4.4h-3.1c-0.2-1.3-1-2-2.5-2s-2.2,0.7-2.2,1.7c0,1,0.5,1.5,2.7,1.9
		c3.6,0.5,5.4,1.4,5.4,4.5c0,2.6-2.1,4.7-5.6,4.7C228.6,44.1,226.7,42.2,226.5,39.2z"/>
	<path d="M245.3,29.1h4.4l4.8,14.8h-3.5l-1-3.3h-5.3l-1,3.3h-3.1L245.3,29.1z M245.3,38.2h3.9l-1.9-6.4L245.3,38.2z"/>
	<g>
		<path d="M152.1,11.6L145,4.5c-0.1-0.1-0.3-0.2-0.5-0.2l0,0c-0.2,0-0.4,0.1-0.5,0.2l-2.5,2.5V5.7c0-0.4-0.3-0.7-0.7-0.7h-2.1
			c-0.4,0-0.7,0.3-0.7,0.7v4.8l-1.1,1.2c-0.1,0.1-0.2,0.3-0.2,0.5v10.6c0,0.4,0.3,0.7,0.7,0.7h3.8c0.4,0,0.7-0.3,0.7-0.7
			s-0.3-0.7-0.7-0.7h-3.1v-9.7l1.1-1.2c0.1-0.1,0.2-0.3,0.2-0.5V6.3h0.7v2.4c0,0.3,0.2,0.5,0.4,0.6c0.2,0.1,0.5,0.1,0.7-0.1l3.2-3.2
			l6.5,6.5V22h-3.3c-0.4,0-0.7,0.3-0.7,0.7s0.3,0.7,0.7,0.7h3.9c0.4,0,0.7-0.3,0.7-0.7V12.1C152.3,11.9,152.2,11.8,152.1,11.6z"/>
		<path d="M148.3,19.4c0.3-0.3,0.3-0.7,0-1l-3.5-3.5c-0.2-0.2-0.7-0.2-0.9,0l-3.5,3.5c-0.1,0.1-0.2,0.3-0.2,0.5s0.1,0.4,0.2,0.5
			c0.2,0.2,0.7,0.2,0.9,0l2.3-2.3v5.7c0,0.4,0.3,0.7,0.7,0.7s0.7-0.3,0.7-0.7V17l2.3,2.3C147.6,19.6,148.1,19.6,148.3,19.4z"/>
	</g>
</g>
</svg>
